<?xml version="1.0" encoding="UTF-8"?>
<svg width="111px" height="108px" viewBox="0 0 111 108" version="1.1" xmlns="http://www.w3.org/2000/svg" xmlns:xlink="http://www.w3.org/1999/xlink">
    <!-- Generator: Sketch 48.2 (47327) - http://www.bohemiancoding.com/sketch -->
    <title>Group 7</title>
    <desc>Created with Sketch.</desc>
    <defs>
        <filter x="-24.6%" y="-16.7%" width="152.3%" height="138.1%" filterUnits="objectBoundingBox" id="filter-1">
            <feOffset dx="0" dy="2" in="SourceAlpha" result="shadowOffsetOuter1"></feOffset>
            <feGaussianBlur stdDeviation="5" in="shadowOffsetOuter1" result="shadowBlurOuter1"></feGaussianBlur>
            <feColorMatrix values="0 0 0 0 0   0 0 0 0 0   0 0 0 0 0  0 0 0 0.2 0" type="matrix" in="shadowBlurOuter1" result="shadowMatrixOuter1"></feColorMatrix>
            <feMerge>
                <feMergeNode in="shadowMatrixOuter1"></feMergeNode>
                <feMergeNode in="SourceGraphic"></feMergeNode>
            </feMerge>
        </filter>
        <path d="M14.8077069,26.0593838 L9.37095599,28.5945824 L6.95141492,23.4058598 C3.3954356,21.1136202 1.11839888,17.5907229 1.11839888,13.640026 C1.11839888,6.73207923 8.08018336,1.13208191 16.6679797,1.13208191 C25.2557761,1.13208191 32.2175606,6.73207923 32.2175606,13.640026 C32.2175606,20.5479728 25.2557761,26.1479701 16.6679797,26.1479701 C16.0384506,26.1479701 15.417659,26.1178777 14.8077069,26.0593838 Z" id="path-2"></path>
        <filter x="-27.3%" y="-23.6%" width="154.7%" height="161.8%" filterUnits="objectBoundingBox" id="filter-3">
            <feOffset dx="0" dy="2" in="SourceAlpha" result="shadowOffsetOuter1"></feOffset>
            <feGaussianBlur stdDeviation="2.5" in="shadowOffsetOuter1" result="shadowBlurOuter1"></feGaussianBlur>
            <feColorMatrix values="0 0 0 0 0.482352941   0 0 0 0 0.549019608   0 0 0 0 0.552941176  0 0 0 0.568982111 0" type="matrix" in="shadowBlurOuter1"></feColorMatrix>
        </filter>
        <path d="M9.13696435,15.282025 C9.17744409,15.5756854 9.25695668,15.7952005 9.3755045,15.9405769 C9.59236026,16.2051621 9.96390091,16.3374526 10.4901376,16.3374526 C10.8053013,16.3374526 11.0611873,16.3025628 11.2578031,16.2327821 C11.6307951,16.0990358 11.8172882,15.8504458 11.8172882,15.4870047 C11.8172882,15.2747551 11.7247645,15.1104822 11.5397142,14.9941811 C11.354664,14.8807875 11.0640816,14.7804792 10.6679584,14.6932534 L9.9913718,14.5406089 C9.32634744,14.3894174 8.86662011,14.2251445 8.61217601,14.0477852 C8.18135589,13.7512173 7.96594906,13.2874734 7.96594906,12.6565397 C7.96594906,12.080849 8.17412747,11.6025677 8.59049054,11.2216814 C9.00685362,10.8407951 9.61837771,10.6503549 10.4250812,10.6503549 C11.0987797,10.6503549 11.6734389,10.8298921 12.1490759,11.1889719 C12.6247129,11.5480517 12.8740933,12.0692184 12.8972246,12.7524876 L11.6134448,12.7524876 C11.5903135,12.3657863 11.4226143,12.091029 11.110342,11.9282074 C10.9021604,11.8206288 10.6433831,11.7668403 10.3340022,11.7668403 C9.98992438,11.7668403 9.71524453,11.83662 9.5099544,11.9761813 C9.30466427,12.1157427 9.20202075,12.3105442 9.20202075,12.5605917 C9.20202075,12.7902865 9.30321859,12.9618281 9.50561731,13.0752217 C9.63573077,13.1508175 9.91330199,13.2394958 10.3383393,13.3412593 L11.4399611,13.6072968 C11.9228266,13.723598 12.2871388,13.8791484 12.5329087,14.0739528 C12.9145748,14.3763358 13.105405,14.8139123 13.105405,15.3866955 C13.105405,15.9740163 12.882047,16.4617469 12.4353241,16.849902 C11.9886012,17.2380571 11.3575604,17.4321317 10.5421827,17.4321317 C9.70945655,17.4321317 9.05456195,17.2409646 8.57747926,16.8586246 C8.10039658,16.4762845 7.86185881,15.9507566 7.86185881,15.282025 L9.13696435,15.282025 Z M18.1819732,15.7181521 C18.4927998,15.3256357 18.6482107,14.7673986 18.6482107,14.0434239 C18.6482107,13.3223568 18.4927998,12.7648465 18.1819732,12.3708764 C17.8711466,11.9769063 17.4511755,11.7799241 16.9220475,11.7799241 C16.3929194,11.7799241 15.9707798,11.9761794 15.6556161,12.3686958 C15.3404524,12.7612121 15.1828729,13.3194493 15.1828729,14.0434239 C15.1828729,14.7673986 15.3404524,15.3256357 15.6556161,15.7181521 C15.9707798,16.1106685 16.3929194,16.3069237 16.9220475,16.3069237 C17.4511755,16.3069237 17.8711466,16.1106685 18.1819732,15.7181521 Z M19.0168637,16.6950769 C18.5339982,17.1951718 17.8357331,17.4452155 16.9220475,17.4452155 C16.0083618,17.4452155 15.3100967,17.1951718 14.8272312,16.6950769 C14.1795553,16.0815883 13.8557223,15.1977128 13.8557223,14.0434239 C13.8557223,12.8658748 14.1795553,11.9819993 14.8272312,11.391771 C15.3100967,10.8916761 16.0083618,10.6416323 16.9220475,10.6416323 C17.8357331,10.6416323 18.5339982,10.8916761 19.0168637,11.391771 C19.6616482,11.9819993 19.9840356,12.8658748 19.9840356,14.0434239 C19.9840356,15.1977128 19.6616482,16.0815883 19.0168637,16.6950769 Z M21.9704245,15.282025 C22.0109042,15.5756854 22.0904168,15.7952005 22.2089646,15.9405769 C22.4258204,16.2051621 22.7973611,16.3374526 23.3235977,16.3374526 C23.6387614,16.3374526 23.8946474,16.3025628 24.0912633,16.2327821 C24.4642552,16.0990358 24.6507484,15.8504458 24.6507484,15.4870047 C24.6507484,15.2747551 24.5582246,15.1104822 24.3731744,14.9941811 C24.1881241,14.8807875 23.8975418,14.7804792 23.5014186,14.6932534 L22.8248319,14.5406089 C22.1598076,14.3894174 21.7000803,14.2251445 21.4456362,14.0477852 C21.014816,13.7512173 20.7994092,13.2874734 20.7994092,12.6565397 C20.7994092,12.080849 21.0075876,11.6025677 21.4239507,11.2216814 C21.8403138,10.8407951 22.4518379,10.6503549 23.2585413,10.6503549 C23.9322399,10.6503549 24.5068991,10.8298921 24.982536,11.1889719 C25.458173,11.5480517 25.7075534,12.0692184 25.7306847,12.7524876 L24.446905,12.7524876 C24.4237737,12.3657863 24.2560744,12.091029 23.9438021,11.9282074 C23.7356206,11.8206288 23.4768432,11.7668403 23.1674623,11.7668403 C22.8233845,11.7668403 22.5487047,11.83662 22.3434145,11.9761813 C22.1381244,12.1157427 22.0354809,12.3105442 22.0354809,12.5605917 C22.0354809,12.7902865 22.1366787,12.9618281 22.3390775,13.0752217 C22.4691909,13.1508175 22.7467621,13.2394958 23.1717994,13.3412593 L24.2734212,13.6072968 C24.7562867,13.723598 25.120599,13.8791484 25.3663688,14.0739528 C25.748035,14.3763358 25.9388652,14.8139123 25.9388652,15.3866955 C25.9388652,15.9740163 25.7155071,16.4617469 25.2687842,16.849902 C24.8220613,17.2380571 24.1910205,17.4321317 23.3756428,17.4321317 C22.5429167,17.4321317 21.8880221,17.2409646 21.4109394,16.8586246 C20.9338567,16.4762845 20.695319,15.9507566 20.695319,15.282025 L21.9704245,15.282025 Z" id="path-4"></path>
    </defs>
    <g id="Home-FAQ" stroke="none" stroke-width="1" fill="none" fill-rule="evenodd" transform="translate(-959.000000, -153.000000)">
        <g id="Group-7" transform="translate(968.000000, 155.000000)">
            <g id="Astronauta-FAQ" filter="url(#filter-1)" transform="translate(0.000000, 14.000000)" fill-rule="nonzero">
                <g id="Group" transform="translate(0.344262, 0.000000)">
                    <g transform="translate(41.093890, 49.120000)" id="Shape">
                        <g transform="translate(0.000000, 0.760000)">
                            <path d="M21.3880775,10.5 C21.3880775,9.3 20.7901639,8.4 20.1922504,7.8 C21.0891207,8.7 21.6870343,9 22.5839046,11.1 C23.1818182,12.3 21.6870343,15.6 19.29538,16.8 C16.9037258,18 14.5120715,18.3 13.0172876,18.3 C11.8214605,18.3 10.6256334,17.7 9.72876304,16.5 C9.72876304,16.5 13.6152012,17.1 17.8005961,15 C20.1922504,13.8 21.3880775,12 21.3880775,10.5 Z" fill="#DDDFDF"></path>
                            <path d="M4.64649776,9 L9.72876304,16.5 C9.72876304,16.5 13.6152012,17.1 18.0995529,15 C20.1922504,13.8 21.3880775,11.7 21.3880775,10.5 C21.0891207,8.1 19.29538,7.5 18.3985097,7.2 C16.604769,6.9 15.1099851,7.5 15.1099851,7.5 C14.5120715,5.7 12.7183308,3 11.2235469,2.1 C9.42980626,0.9 7.93502235,2.88657986e-15 2.85275708,0.9 C-2.2295082,1.8 1.35797317,4.8 1.35797317,4.8 L1.65692996,6.3 L2.85275708,8.4 L4.64649776,9 Z" fill="#E9EDEE"></path>
                            <path d="M13.0172876,12.3 C15.7078987,9.6 15.1099851,7.5 15.1099851,7.5 C15.1099851,7.2 15.1099851,7.2 15.1099851,7.2 L15.1099851,7.5 C15.1099851,7.5 15.1099851,7.5 15.4089419,7.5 C15.4089419,7.5 15.4089419,7.5 15.4089419,7.5 C15.4089419,7.8 16.0068554,10.2 13.3162444,12.9 C13.3162444,12.9 13.3162444,12.9 13.3162444,12.9 C13.3162444,12.9 13.0172876,12.9 13.0172876,12.9 C13.0172876,12.6 13.0172876,12.6 13.0172876,12.3 Z" fill="#B9B9B9" opacity="0.2"></path>
                        </g>
                        <g transform="translate(0.000000, -0.000000)">
                            <path d="M3.74962742,0.76 C3.74962742,0.76 4.94545455,1.66 4.94545455,2.56 C4.64649776,3.46 4.0485842,5.86 4.0485842,5.86 C4.0485842,5.86 6.73919523,5.86 7.33710879,7.66 C8.23397914,9.16 11.2235469,13.96 11.5225037,14.86 C11.8214605,16.06 18.9964232,17.26 20.4912072,16.66 C21.9859911,16.06 18.6974665,19.36 18.6974665,19.36 L13.6152012,20.26 L8.8318927,19.36 L7.33710879,16.36 L5.54336811,12.46 L3.74962742,10.66 L0.461102832,7.96 L0.461102832,4.66 L0.461102832,2.26 L2.25484352,0.46 L3.74962742,0.76 Z" fill="#000000" opacity="0.02"></path>
                            <path d="M21.3880775,11.26 C21.3880775,10.06 20.7901639,9.16 20.1922504,8.56 C21.0891207,9.46 21.6870343,9.76 22.5839046,11.86 C23.1818182,13.06 21.6870343,16.36 19.29538,17.56 C14.8110283,19.66 10.6256334,18.76 10.6256334,18.76 L9.72876304,17.26 C9.72876304,17.26 13.6152012,17.86 17.8005961,15.76 C20.1922504,14.56 21.3880775,12.76 21.3880775,11.26 Z" fill="#DDDFDF"></path>
                        </g>
                    </g>
                    <g transform="translate(23.156483, 54.000000)" id="Shape">
                        <path d="M25.2745156,24.08 C26.4703428,23.48 27.0682563,22.58 27.3672131,21.68 C26.7692996,23.18 26.7692996,23.78 25.2745156,25.58 C24.3776453,26.48 20.4912072,26.48 18.3985097,24.68 C16.0068554,22.28 14.8110283,19.58 14.2131148,17.78 C13.914158,16.88 13.914158,15.98 14.5120715,15.38 L14.8110283,14.78 C14.8110283,14.78 16.0068554,18.98 19.5943368,22.58 C21.6870343,24.08 24.0786885,24.68 25.2745156,24.08 Z" fill="#C9C9C9"></path>
                        <path d="M15.1099851,12.38 C14.5120715,12.08 10.0277198,10.58 7.93502235,10.28 C2.5538003,9.08 1.35797317,5.78 1.35797317,5.78 L8.23397914,7.88 L19.8932936,0.38 C27.0682563,2.18 27.3672131,9.08 27.3672131,9.08 C27.3672131,9.08 26.7692996,15.38 25.5734724,16.58 C25.5734724,16.58 26.7692996,18.08 27.0682563,19.88 C27.3672131,20.78 27.3672131,23.18 25.2745156,24.08 C24.0786885,24.68 21.6870343,24.38 19.5943368,22.58 C15.7078987,18.98 14.8110283,14.48 14.8110283,14.48 C14.8110283,14.48 15.4089419,13.88 15.4089419,13.28 C15.7078987,12.98 15.1099851,12.38 15.1099851,12.38 Z" fill="#E9EDEE"></path>
                        <path d="M20.1922504,16.28 C23.7797317,18.08 25.5734724,16.28 25.5734724,16.28 C25.5734724,16.28 25.8724292,16.28 25.8724292,16.28 L25.5734724,16.58 C25.5734724,16.58 25.5734724,16.58 25.5734724,16.58 C25.5734724,16.58 25.5734724,16.58 25.5734724,16.58 C25.2745156,16.88 23.480775,18.38 19.5943368,16.58 C19.5943368,16.58 19.5943368,16.58 19.5943368,16.58 C19.5943368,16.58 19.29538,16.28 19.5943368,16.28 C19.8932936,16.28 20.1922504,16.28 20.1922504,16.28 Z" fill="#B9B9B9" opacity="0.2"></path>
                        <path d="M6.14128167,4.28 C6.14128167,4.28 8.53293592,8.48 11.2235469,8.78 C13.914158,9.08 15.7078987,9.38 16.604769,9.98 C19.29538,12.08 16.0068554,12.98 16.3058122,15.08 C16.604769,17.18 16.604769,20.48 21.0891207,23.48 C22.2849478,24.08 25.2745156,24.98 24.9755589,25.58 C24.6766021,26.18 21.3880775,27.98 21.0891207,28.28 C20.7901639,28.28 12.7183308,24.08 12.7183308,24.08 L11.2235469,18.08 L6.44023845,11.18 L3.15171386,8.78 L0.760059613,7.58 L0.162146051,4.88 L1.95588674,3.68 L6.14128167,4.28 Z" fill="#000000" opacity="0.03"></path>
                    </g>
                    <g transform="translate(35.114754, 31.880000)" fill="#DDE1E2" id="Shape">
                        <path d="M0.162146051,7.5 L0.760059613,9.3 L1.35797317,10.5 C1.35797317,10.5 3.45067064,11.1 3.74962742,11.7 C5.24441133,13.5 6.14128167,12.9 8.53293592,11.4 C8.8318927,11.1 9.42980626,9.9 9.72876304,9.6 C18.3985097,5.4 19.29538,4.8 18.0995529,2.1 C17.8005961,1.2 16.0068554,0.6 13.0172876,1.5 C11.5225037,1.8 4.64649776,4.8 3.45067064,5.4 C1.65692996,6.6 0.162146051,7.5 0.162146051,7.5 Z"></path>
                    </g>
                    <path d="M43.3487332,43.28 L40.3591654,37.88 C40.3591654,37.88 40.6581222,37.88 40.6581222,37.88 C41.8539493,37.58 43.0497765,38.78 43.64769,40.28 C43.9466468,41.48 43.9466468,42.68 43.3487332,43.28 Z" id="Shape" fill="#D8DADA"></path>
                    <g transform="translate(20.166915, 37.880000)" id="Shape">
                        <g transform="translate(0.760060, 0.000000)" fill="#E9EDEE">
                            <path d="M0.597913562,8.1 C-0.896870343,9.6 0.896870343,16.8 0.896870343,16.8 C0.896870343,16.8 1.4947839,19.2 1.4947839,19.2 C2.98956781,24.9 9.56661699,28.2 16.1436662,26.4 L17.3394933,26.1 C23.9165425,24.3 27.8029806,18.3 26.3081967,12.6 C26.3081967,12.6 25.1123696,9.6 25.1123696,9.6 L20.0301043,0 C20.0301043,0 4.18539493,4.2 0.597913562,8.1 Z"></path>
                            <g transform="translate(5.979136, 8.240000)">
                                <path d="M14.3499255,4.06 C14.3499255,4.06 4.18539493,4.36 1.79374069,3.76 C-0.597913562,3.16 0.896870343,1.96 0.896870343,1.96 L6.57704918,0.16 L14.0509687,0.46 L14.3499255,4.06 Z"></path>
                            </g>
                            <g transform="translate(8.968703, 12.000000)">
                                <path d="M10.1645306,0 C10.1645306,0 6.57704918,6.3 2.09269747,7.8 L0.597913562,7.8 L0,9.6 L0.298956781,10.8 C0.298956781,10.8 6.57704918,9.3 8.07183308,8.1 C9.56661699,6.9 11.9582712,3.3 12.257228,1.8 C12.257228,0.3 12.257228,0.3 12.257228,0.3 L10.1645306,0 Z"></path>
                            </g>
                            <g transform="translate(8.968703, 11.240000)">
                                <path d="M15.8447094,1.06 C15.8447094,1.06 12.257228,7.96 1.4947839,10.36 L0.298956781,10.96 L1.19582712,13.06 C1.19582712,13.06 4.18539493,13.96 9.56661699,11.26 C14.0509687,9.16 16.7415797,5.56 17.6384501,4.36 C17.9374069,4.06 17.9374069,3.76 17.9374069,3.46 C17.9374069,2.86 17.6384501,2.26 17.6384501,1.66 C17.0405365,0.16 16.1436662,0.46 15.8447094,1.06 Z"></path>
                            </g>
                        </g>
                        <path d="M14.8110283,13.2 C15.7078987,17.1 22.2849478,20.4 21.0891207,24.9 C21.0891207,24.9 20.4912072,25.2 19.29538,25.8 C18.6974665,26.1 17.8005961,26.4 16.9037258,26.7 C15.4089419,27 13.914158,27.3 12.1204173,27 C7.03815201,26.7 3.74962742,23.4 2.5538003,20.7 C1.35797317,18 -0.13681073,11.1 0.461102832,9.6 C1.05901639,8.1 7.03815201,8.4 7.03815201,8.4 L13.3162444,7.2 L15.1099851,7.8 C15.7078987,7.8 14.2131148,10.5 14.8110283,13.2 Z" fill="#000000" opacity="0.03"></path>
                    </g>
                    <g transform="translate(38.864382, 42.000000)" id="Shape">
                        <g>
                            <path d="M2.39165425,9.98 L3.58748137,9.98 L1.79374069,4.88 L0.597913562,4.88 C0.298956781,4.88 0.298956781,5.18 0.597913562,5.18 L2.09269747,9.68 C2.09269747,9.98 2.09269747,9.98 2.39165425,9.98 Z" fill="#BFC2C3"></path>
                            <path d="M2.09269747,4.88 L5.38122206,0.68 L4.18539493,0.68 C4.18539493,0.68 3.88643815,0.68 3.88643815,0.68 L0.597913562,4.88 L2.09269747,4.88 Z" fill="#D8DADA"></path>
                            <path d="M3.88643815,9.68 L7.17496274,5.78 C7.17496274,5.78 7.17496274,5.48 7.17496274,5.48 L5.68017884,0.98 C5.68017884,0.68 5.38122206,0.68 5.08226528,0.98 L1.79374069,4.88 C1.79374069,4.88 1.79374069,5.18 1.79374069,5.18 L3.28852459,9.68 C3.28852459,9.98 3.58748137,9.98 3.88643815,9.68 Z" fill="#E9EDEE"></path>
                        </g>
                    </g>
                    <g transform="translate(41.093890, 49.880000)" id="Shape">
                        <g transform="translate(0.000000, 0.000000)">
                            <path d="M2.25484352,8.1 L3.15171386,8.1 L1.65692996,4.2 L0.760059613,4.2 C0.760059613,4.2 0.461102832,4.5 0.760059613,4.5 L2.25484352,8.1 C1.95588674,8.1 1.95588674,8.4 2.25484352,8.1 Z" fill="#BFC2C3"></path>
                            <path d="M1.95588674,4.2 L4.64649776,0.9 L3.74962742,0.9 C3.74962742,0.9 3.45067064,0.9 3.45067064,0.9 L0.760059613,4.2 L1.95588674,4.2 Z" fill="#D8DADA"></path>
                            <path d="M3.45067064,8.1 L6.14128167,4.8 C6.14128167,4.8 6.14128167,4.8 6.14128167,4.5 L4.94545455,0.9 C4.94545455,0.6 4.64649776,0.6 4.64649776,0.9 L1.95588674,3.9 C1.95588674,3.9 1.95588674,4.2 1.95588674,4.2 L3.15171386,7.8 C2.85275708,8.1 3.15171386,8.1 3.45067064,8.1 Z" fill="#E9EDEE"></path>
                        </g>
                    </g>
                    <g transform="translate(20.166915, 37.880000)" id="Shape">
                        <g transform="translate(-0.000000, 0.000000)" fill="#CCD0D1">
                            <path d="M0.461102832,7.2 C0.760059613,9 -0.13681073,10.2 5.24441133,10.5 C9.42980626,10.8 14.8110283,9.6 21.9859911,3 C21.9859911,3 22.5839046,2.1 21.6870343,0.6 C20.7901639,-0.9 16.604769,3.3 16.604769,3.3 L7.93502235,5.7 L2.5538003,6 L0.760059613,6.6 C0.760059613,6.6 0.162146051,6.9 0.461102832,7.2 Z"></path>
                        </g>
                        <path d="M13.6152012,9 C10.3266766,10.5 7.63606557,10.8 4.94545455,10.8 C-0.13681073,10.2 0.760059613,9 0.461102832,7.2 C0.461102832,6.9 1.05901639,6.6 1.05901639,6.6 L2.85275708,6 L8.23397914,5.7 C8.23397914,5.7 15.7078987,2.1 15.1099851,3.9 C14.8110283,5.4 17.5016393,6.3 16.0068554,7.8 L14.8110283,8.4 L14.5120715,8.7 L13.6152012,9 Z" fill="#000000" opacity="0.05"></path>
                    </g>
                    <g transform="translate(7.093890, 34.880000)" id="Shape">
                        <polygon fill="#CECECE" points="14.7299553 30 23.9976155 21 16.8226528 0.6 7.25603577 9.3"></polygon>
                        <path d="M11.4414307,30.3 L14.7299553,30 L7.25603577,9.3 L1.57585693,8.7 C0.977943368,8.7 0.678986587,9 0.977943368,9.6 L7.85394933,28.2 C8.45186289,29.7 9.9466468,30.6 11.4414307,30.3 Z" fill="#DDE1E2"></path>
                        <polygon fill="#C7CACB" points="7.25603577 9.3 16.8226528 0.6 9.9466468 1.5 1.27690015 9"></polygon>
                    </g>
                    <g transform="translate(23.156483, 49.880000)" fill="#DDE1E2" id="Shape">
                        <path d="M0.760059613,6.3 C0.461102832,5.4 0.162146051,4.2 0.461102832,3.3 C0.461102832,3 1.35797317,2.4 1.35797317,2.4 C1.35797317,2.4 3.45067064,2.1 3.74962742,1.5 C5.54336811,-4.4408921e-15 6.73919523,1.2 8.23397914,3.3 C8.53293592,3.6 8.53293592,5.1 9.13084948,5.4 C16.604769,11.4 17.2026826,12.3 15.7078987,14.7 C14.8110283,15.9 11.2235469,15.3 5.84232489,10.8 C2.85275708,8.7 1.65692996,7.8 0.760059613,6.3 Z"></path>
                    </g>
                    <path d="M26.0092399,49.58 C26.0092399,49.58 29.2977645,48.08 31.9883756,51.38 C33.7821162,53.48 32.8852459,57.68 31.390462,58.28 C31.390462,58.28 32.5862891,54.08 29.2977645,52.28 C27.8029806,51.38 24.2154993,51.68 23.6175857,54.08 C23.6175857,54.08 22.4217586,50.78 26.0092399,49.58 Z" id="Shape" fill="#CFD3D3"></path>
                    <g id="Shape">
                        <path d="M1.19582712,29.48 C4.48435171,41.78 16.7415797,47.18 29.5967213,43.88 C48.4309985,38.78 50.2247392,29.48 46.9362146,17.18 C43.64769,4.88 30.7925484,-2.02 18.2363636,1.28 C5.68017884,4.58 -2.09269747,17.18 1.19582712,29.48 Z" fill="#E9EDEE"></path>
                        <path d="M40.6581222,6.68 C40.6581222,6.68 22.7207154,15.98 17.0405365,30.08 L18.5353204,38.78 L21.823845,39.98 C21.823845,39.98 38.8643815,42.08 47.2351714,31.58 C47.2351714,31.58 47.5341282,30.68 47.8330849,29.18 C48.7299553,24.98 49.6268256,15.38 40.6581222,6.68 Z" fill="#256BA6"></path>
                        <g transform="translate(7.093890, 27.000000)">
                            <path d="M1.57585693,11.48 C3.96751118,14.78 8.75081967,15.68 11.7403875,13.28 C14.7299553,10.88 14.1320417,7.28 11.4414307,3.98 C8.75081967,0.68 4.56542474,-0.22 2.47272727,1.58 C0.0810730253,3.98 -0.815797317,7.88 1.57585693,11.48 Z" fill="#D2D5D6"></path>
                            <path d="M1.57585693,11.48 C3.36959762,13.88 6.35916542,14.48 8.15290611,13.28 C9.9466468,12.08 9.34873323,9.38 7.55499255,6.98 C5.76125186,4.58 3.6685544,3.68 1.57585693,4.88 C-0.217883756,6.38 -0.217883756,9.08 1.57585693,11.48 Z" fill="#E9EDEE"></path>
                        </g>
                        <path d="M18.2363636,1.28 C21.2259314,0.38 24.2154993,0.38 27.2050671,0.68 C17.9374069,5.48 22.4217586,13.28 20.3290611,24.38 C18.2363636,33.68 26.0092399,40.88 35.2769001,42.08 C33.4831595,42.68 31.6894188,43.28 29.8956781,43.88 C25.1123696,45.08 20.6280179,45.38 16.442623,44.18 C9.26766021,42.38 3.28852459,37.58 1.19582712,29.48 C-2.09269747,17.18 5.68017884,4.58 18.2363636,1.28 Z" fill="#000000" opacity="0.05"></path>
                        <g opacity="0.2" transform="translate(25.031297, 19.120000)" fill="#00B9E6">
                            <path d="M6.65812221,10.66 C6.95707899,9.76 6.35916542,8.86 6.06020864,7.96 C5.46229508,6.76 5.46229508,5.26 6.06020864,4.06 C6.35916542,3.16 6.95707899,2.26 6.65812221,1.66 C6.35916542,0.76 5.46229508,0.46 4.56542474,0.76 C3.07064083,0.76 1.87481371,1.96 1.27690015,3.16 C0.380029806,5.26 0.380029806,7.66 0.977943368,9.76 C2.47272727,13.96 6.06020864,13.66 6.65812221,10.66 Z"></path>
                            <path d="M9.64769001,14.86 C8.75081967,14.26 7.25603577,13.66 6.65812221,13.66 C4.56542474,13.36 3.96751118,16.36 5.76125186,17.26 C6.35916542,17.56 7.85394933,17.86 9.04977645,17.56 C9.64769001,17.56 10.5445604,16.06 9.64769001,14.86 Z"></path>
                        </g>
                    </g>
                </g>
            </g>
            <g id="sos-icon" transform="translate(65.000000, 0.000000)">
                <g id="Oval-6-Copy-2" transform="translate(16.667980, 14.888243) rotate(-3.000000) translate(-16.667980, -14.888243) ">
                    <use fill="black" fill-opacity="1" filter="url(#filter-3)" xlink:href="#path-2"></use>
                    <use fill="#FFFFFF" fill-rule="evenodd" xlink:href="#path-2"></use>
                </g>
                <g id="SOS" transform="translate(16.900362, 14.043424) rotate(-1.000000) translate(-16.900362, -14.043424) ">
                    <use fill="#4A4A4A" fill-rule="evenodd" xlink:href="#path-4"></use>
                    <use fill="black" fill-opacity="1" xlink:href="#path-4"></use>
                </g>
            </g>
        </g>
    </g>
</svg>