<?xml version="1.0" encoding="UTF-8"?>
<svg width="278px" height="349px" viewBox="0 0 278 349" version="1.1" xmlns="http://www.w3.org/2000/svg" xmlns:xlink="http://www.w3.org/1999/xlink">
    <!-- Generator: Sketch 48.2 (47327) - http://www.bohemiancoding.com/sketch -->
    <title>Foguete-FAQ</title>
    <desc>Created with Sketch.</desc>
    <defs>
        <filter x="-13.7%" y="-9.8%" width="127.4%" height="121.0%" filterUnits="objectBoundingBox" id="filter-1">
            <feOffset dx="0" dy="2" in="SourceAlpha" result="shadowOffsetOuter1"></feOffset>
            <feGaussianBlur stdDeviation="10" in="shadowOffsetOuter1" result="shadowBlurOuter1"></feGaussianBlur>
            <feColorMatrix values="0 0 0 0 0   0 0 0 0 0   0 0 0 0 0  0 0 0 0.2 0" type="matrix" in="shadowBlurOuter1" result="shadowMatrixOuter1"></feColorMatrix>
            <feMerge>
                <feMergeNode in="shadowMatrixOuter1"></feMergeNode>
                <feMergeNode in="SourceGraphic"></feMergeNode>
            </feMerge>
        </filter>
        <path d="M35.410574,-1.42108547e-13 C35.410574,-1.42108547e-13 68.3790394,26.4013115 64.7158766,75.0787296 C64.7158766,75.0787296 63.4948223,107.255328 39.0737368,93.6421518 C21.1649408,83.74166 18.3158141,81.6790575 -2.84217094e-14,78.3788936 C8.95439802,70.5410042 26.0491579,42.0770902 35.410574,-1.42108547e-13 Z" id="path-2"></path>
    </defs>
    <g id="Home-FAQ" stroke="none" stroke-width="1" fill="none" fill-rule="evenodd" transform="translate(-89.000000, -194.000000)">
        <g id="Foguete-FAQ" filter="url(#filter-1)" transform="translate(251.325428, 353.720611) rotate(-345.000000) translate(-251.325428, -353.720611) translate(138.325428, 206.220611)">
            <g id="Group" transform="translate(161.000000, 198.000000)">
                <mask id="mask-3" fill="white">
                    <use xlink:href="#path-2"></use>
                </mask>
                <use id="Mask" fill="#256BA4" fill-rule="nonzero" xlink:href="#path-2"></use>
                <g opacity="0.2" mask="url(#mask-3)">
                    <g transform="translate(23.000000, 26.000000)">
                        <g>
                            <path d="M38.1604278,61.0087209 C26.6609626,54.5203488 15.1614973,48.0319767 3.2513369,41.1380814 C0.376470588,39.5159884 -0.444919786,37.0828488 1.19786096,34.244186 C2.01925134,33.0276163 2.42994652,31.8110465 3.2513369,31 L17.6256684,6.66860465 C18.0363636,5.45203488 18.857754,4.64098837 19.2684492,3.4244186 C19.6791444,2.61337209 20.5005348,1.80232558 21.3219251,0.99127907 C22.5540107,0.585755814 23.7860963,0.585755814 24.6074866,0.99127907 C36.5176471,7.47965116 48.4278075,14.3735465 60.3379679,21.2674419 C62.802139,22.8895349 63.6235294,24.9171512 61.9807487,27.3502907 C61.1593583,28.5668605 60.7486631,29.377907 59.9272727,30.5944767 C48.0171123,23.7005814 36.1069519,17.2122093 24.1967914,10.318314 L9.82245989,35.0552326 C11.8759358,36.2718023 13.9294118,37.4883721 15.9828877,38.2994186 C25.0181818,43.5712209 34.4641711,48.8430233 43.4994652,54.1148256 C45.5529412,55.3313953 45.5529412,55.3313953 44.3208556,57.3590116 C43.9101604,57.7645349 43.4994652,58.5755814 43.0887701,59.3866279 C42.2673797,61.0087209 41.0352941,61.4142442 39.8032086,61.4142442 C39.3925134,61.8197674 38.571123,61.4142442 38.1604278,61.0087209 Z" id="Shape" fill="#1B4866" fill-rule="nonzero"></path>
                            <path d="M41.0352941,49.2485465 C40.6245989,48.8430233 40.6245989,48.8430233 40.6245989,48.4375 C40.6245989,48.0319767 40.6245989,47.6264535 40.2139037,47.2209302 C40.2139037,47.2209302 40.2139037,46.815407 40.2139037,46.815407 C40.2139037,45.5988372 39.3925134,42.3546512 39.3925134,41.9491279 L38.1604278,35.8662791 C36.5176471,38.7049419 34.8748663,41.5436047 32.8213904,44.7877907 C30.7679144,43.5712209 28.7144385,42.3546512 26.2502674,41.1380814 C25.0181818,40.3270349 25.428877,39.5159884 25.8395722,39.1104651 L33.2320856,26.9447674 C34.0534759,25.3226744 35.2855615,23.7005814 36.1069519,22.0784884 C38.1604278,23.2950581 40.6245989,24.5116279 42.6780749,26.1337209 C42.6780749,26.1337209 43.0887701,26.5392442 43.0887701,26.9447674 C43.0887701,27.3502907 43.4994652,27.755814 43.4994652,28.1613372 C43.4994652,29.7834302 43.9101604,31.4055233 44.3208556,33.0276163 L45.5529412,39.5159884 C47.1957219,36.6773256 48.8385027,33.8386628 50.8919786,30.5944767 C52.9454545,31.8110465 55.4096257,33.0276163 57.4631016,34.244186 C57.8737968,34.6497093 57.8737968,35.0552326 57.8737968,35.8662791 C54.5882353,41.9491279 50.8919786,47.6264535 47.6064171,53.7093023 C45.5529412,51.681686 43.0887701,50.4651163 41.0352941,49.2485465 Z" id="Shape" fill="#1B4866" fill-rule="nonzero"></path>
                            <path d="M16.3935829,35.4607558 C15.1614973,35.0552326 15.1614973,34.244186 15.9828877,33.4331395 C19.2684492,27.755814 22.5540107,22.0784884 26.2502674,15.9956395 C28.3037433,17.2122093 30.7679144,18.4287791 32.8213904,20.0508721 C33.2320856,20.0508721 33.2320856,21.2674419 32.8213904,21.6729651 C29.5358289,27.755814 25.8395722,33.4331395 22.5540107,39.5159884 C20.5005348,37.4883721 18.4470588,36.2718023 16.3935829,35.4607558 Z" id="Shape" fill="#1B4866" fill-rule="nonzero"></path>
                        </g>
                    </g>
                </g>
            </g>
            <path d="M113.090498,1 C86.8823529,1 23,56.5763473 23,135.206587 C23,210.95509 52.8936652,264.473054 65.5882353,276 C65.5882353,276 88.9298643,268.58982 113.5,268.58982 C138.070136,268.58982 161.411765,276 161.411765,276 C173.696833,264.473054 204,210.543413 204,135.206587 C203.180995,56.5763473 139.298643,1 113.090498,1 Z" id="Shape" fill="#E7EBEC" fill-rule="nonzero"></path>
            <path d="M129.253376,295 L95.7421907,295 C88.3860768,295 82.2559818,287.957143 83.0733278,280.085714 L87.5687308,232.442857 C88.7947498,218.357143 99.8289207,208 112.906457,208 C123.940627,208 133.340106,216.7 134.974798,228.3 L141.922239,279.257143 C142.739585,287.542857 137.018163,295 129.253376,295 Z" id="Shape" fill="#256BA4" fill-rule="nonzero"></path>
            <path d="M29.589426,198 C29.589426,198 -3.37903939,224.401312 0.284123432,273.07873 C0.284123432,273.07873 1.50517771,305.255328 25.9262632,291.642152 C43.8350592,281.74166 46.6841859,279.679058 65,276.378894 C56.045602,268.541004 38.9508421,240.07709 29.589426,198 Z" id="Shape" fill="#256BA4" fill-rule="nonzero"></path>
            <circle id="Oval" fill="#256BA8" fill-rule="nonzero" cx="112.5" cy="124.5" r="53.5"></circle>
            <circle id="Oval" fill="#2A333C" fill-rule="nonzero" cx="113.5" cy="125.5" r="40.5"></circle>
            <path d="M150,19.6067416 C135.989011,7.47191011 121.948785,0.937794661 112.470763,0.937794661 C103.404829,0.937794661 89.8130388,8.44925666 75.3899619,20.1795937 C84.0438081,30.6964477 97.2527473,37 112.5,37 C127.747253,37 140.934066,30.1235955 150,19.6067416 Z" id="Shape" fill="#256BA8" fill-rule="nonzero"></path>
            <g id="Group" opacity="0.1" transform="translate(112.000000, 94.000000)" fill="#E7EBEC" fill-rule="nonzero">
                <path d="M16.9125,32.6153846 C14.025,30.974359 14.4375,27.2820513 14.025,24 C13.2,19.4871795 10.725,15.3846154 7.0125,13.3333333 C4.5375,11.6923077 1.2375,10.8717949 0.825,8 C-6.10622664e-15,5.53846154 2.0625,2.66666667 4.5375,1.43589744 C8.6625,-0.615384615 14.025,0.205128205 17.7375,2.66666667 C24.3375,6.35897436 28.875,12.9230769 30.9375,19.8974359 C34.65,33.8461538 23.925,39.1794872 16.9125,32.6153846 Z" id="Shape"></path>
                <path d="M16.9125,49.4358974 C17.7375,46.1538462 21.0375,42.0512821 23.1,40.4102564 C28.875,35.8974359 35.475,42.8717949 31.7625,48.6153846 C30.525,50.6666667 26.8125,53.9487179 23.5125,55.1794872 C21.45,56 16.0875,54.3589744 16.9125,49.4358974 Z" id="Shape"></path>
            </g>
            <g id="Group" opacity="0.05" transform="translate(20.000000, 117.000000)" fill="#000000" fill-rule="nonzero">
                <path d="M12.375,93.5913043 L10.3125,91.9565217 C10.725,91.1391304 23.925,76.426087 27.225,72.7478261 C30.1125,69.8869565 29.2875,64.9826087 29.2875,64.9826087 C28.875,62.5304348 19.3875,9.80869565 19.3875,4.08695652 C19.3875,3.26956522 19.3875,2.86086957 18.975,2.86086957 C18.15,2.45217391 15.675,3.67826087 14.025,4.90434783 L2.0625,12.2608696 L0.825,10.2173913 L12.7875,2.86086957 C14.025,2.04347826 17.7375,-0.817391304 20.2125,0.408695652 C21.0375,0.817391304 21.8625,1.63478261 21.8625,4.08695652 C21.8625,8.5826087 28.4625,45.773913 31.7625,64.573913 C31.7625,64.9826087 33,71.1130435 28.875,74.7913043 C25.9875,78.0608696 12.7875,93.1826087 12.375,93.5913043 Z" id="Shape"></path>
            </g>
            <g id="Group" opacity="0.05" transform="translate(172.000000, 117.000000)" fill="#000000" fill-rule="nonzero">
                <path d="M19.5252525,93.5913043 C19.5252525,93.5913043 6.19191919,78.0608696 2.95959596,74.7913043 C-0.676767677,71.1130435 0.131313131,64.9826087 0.131313131,64.573913 C3.36363636,45.773913 9.82828283,8.5826087 9.82828283,4.08695652 C9.82828283,2.04347826 10.6363636,0.817391304 11.4444444,0.408695652 C13.8686869,-0.817391304 17.5050505,2.04347826 18.7171717,2.86086957 L30.4343434,10.2173913 L29.6262626,12.2608696 L17.9090909,4.90434783 C16.2929293,3.67826087 13.8686869,2.45217391 13.0606061,2.86086957 C13.0606061,2.86086957 12.6565657,3.26956522 12.6565657,4.08695652 C12.6565657,9.80869565 3.36363636,62.9391304 2.95959596,64.9826087 C2.95959596,64.9826087 2.15151515,69.8869565 4.97979798,72.7478261 C8.21212121,76.0173913 21.1414141,91.1391304 21.5454545,91.9565217 L19.5252525,93.5913043 Z" id="Shape"></path>
            </g>
        </g>
    </g>
</svg>